<?xml version="1.0" encoding="UTF-8" standalone="no"?>
<!-- Created with Inkscape (http://www.inkscape.org/) -->

<svg
   width="105.83334mm"
   height="105.83463mm"
   viewBox="0 0 105.83334 105.83463"
   version="1.1"
   id="svg1"
   inkscape:version="1.4 (86a8ad7, 2024-10-11)"
   sodipodi:docname="ferrishot.svg"
   xmlns:inkscape="http://www.inkscape.org/namespaces/inkscape"
   xmlns:sodipodi="http://sodipodi.sourceforge.net/DTD/sodipodi-0.dtd"
   xmlns="http://www.w3.org/2000/svg"
   xmlns:svg="http://www.w3.org/2000/svg">
  <sodipodi:namedview
     id="namedview1"
     pagecolor="#ffffff"
     bordercolor="#000000"
     borderopacity="0.25"
     inkscape:showpageshadow="2"
     inkscape:pageopacity="0.0"
     inkscape:pagecheckerboard="0"
     inkscape:deskcolor="#d1d1d1"
     inkscape:document-units="mm"
     inkscape:zoom="1.0396254"
     inkscape:cx="160.15384"
     inkscape:cy="273.65626"
     inkscape:window-width="3440"
     inkscape:window-height="1369"
     inkscape:window-x="6872"
     inkscape:window-y="449"
     inkscape:window-maximized="1"
     inkscape:current-layer="layer1" />
  <defs
     id="defs1" />
  <g
     inkscape:label="Layer 1"
     inkscape:groupmode="layer"
     id="layer1"
     transform="translate(-62.54196,-75.98767)">
    <g
       style="display:inline;fill:none"
       id="g2"
       transform="matrix(3.3072917,0,0,3.3072917,9.6252964,23.071579)">
      <path
         id="path1"
         style="display:inline;fill:#000000;fill-opacity:1"
         d="m 31.847344,16.026145 a 0.462,0.462 0 0 0 -0.239375,0.192813 l -0.832031,1.344062 c -0.13,0.01 -0.260938,0.02397 -0.390938,0.03797 l -1.077031,-1.155 a 0.464,0.464 0 0 0 -0.770938,0.152969 L 27.985,18.075052 c -0.128,0.037 -0.255,0.07594 -0.38,0.115937 l -1.28,-0.920937 a 0.46,0.46 0 0 0 -0.727031,0.3 l -0.253906,1.556875 c -0.117,0.061 -0.233,0.124125 -0.35,0.188125 L 23.56,18.660989 a 0.46,0.46 0 0 0 -0.654062,0.435938 l 0.055,1.58 c -0.102,0.082 -0.202969,0.165 -0.302969,0.25 L 21.12,20.563958 a 0.464,0.464 0 0 0 -0.557031,0.556094 l 0.362969,1.538906 c -0.085,0.1 -0.168,0.200031 -0.25,0.302031 l -1.578907,-0.055 A 0.462,0.462 0 0 0 18.66,23.560052 l 0.654063,1.435937 c -0.063,0.115 -0.126032,0.231 -0.187032,0.35 L 17.570938,25.59802 A 0.462,0.462 0 0 0 17.27,26.325052 l 0.92,1.278906 c -0.04,0.126 -0.078,0.253 -0.115,0.38 l -1.475937,0.552969 a 0.462,0.462 0 0 0 -0.153125,0.771093 l 1.155,1.077032 c -0.015,0.13 -0.02791,0.259937 -0.03891,0.390937 L 16.21906,31.60802 a 0.462,0.462 0 0 0 0,0.785938 l 1.342968,0.831094 c 0.011,0.131 0.02391,0.261875 0.03891,0.391875 l -1.155,1.077031 a 0.462,0.462 0 0 0 0.153125,0.771094 L 18.075,36.016927 c 0.037,0.128 0.07594,0.255 0.115938,0.38 l -0.920938,1.28 a 0.462,0.462 0 0 0 0.300938,0.726093 l 1.556093,0.252969 c 0.061,0.118 0.122969,0.235 0.187969,0.35 l -0.655,1.435 a 0.462,0.462 0 0 0 0.437031,0.654062 l 1.578907,-0.055 c 0.082,0.103 0.165,0.202969 0.25,0.302969 l -0.362969,1.538906 a 0.46,0.46 0 0 0 0.557031,0.555 l 1.537969,-0.361875 c 0.1,0.085 0.200969,0.166907 0.302969,0.248907 l -0.055,1.58 A 0.461,0.461 0 0 0 23.56,45.340051 l 1.435,-0.654062 c 0.115,0.064 0.232,0.126969 0.35,0.187969 l 0.252969,1.555 A 0.461,0.461 0 0 0 26.325,46.730989 l 1.279063,-0.922031 c 0.126,0.04 0.253,0.08009 0.38,0.116093 l 0.551875,1.475938 a 0.46,0.46 0 0 0 0.771093,0.152969 l 1.077969,-1.155 c 0.13,0.015 0.259938,0.028 0.390938,0.04 l 0.832031,1.342968 a 0.463,0.463 0 0 0 0.786093,0 L 33.225,46.43802 c 0.131,-0.011 0.262031,-0.02406 0.392031,-0.03906 l 1.077031,1.155 a 0.46,0.46 0 0 0 0.77,-0.152969 l 0.552969,-1.475938 c 0.127,-0.036 0.254,-0.07609 0.38,-0.116093 l 1.28,0.922031 a 0.463,0.463 0 0 0 0.725938,-0.302031 l 0.254062,-1.555938 c 0.117,-0.06 0.232906,-0.124031 0.348906,-0.187031 l 1.435,0.654062 A 0.461,0.461 0 0 0 41.095,44.90302 l -0.055,-1.58 c 0.102,-0.08 0.202969,-0.162969 0.302969,-0.247969 l 1.537968,0.361875 a 0.46,0.46 0 0 0 0.556094,-0.555 L 43.075,41.34302 c 0.084,-0.1 0.167062,-0.199969 0.249062,-0.302969 l 1.58,0.055 A 0.46,0.46 0 0 0 45.34,40.440989 l -0.654063,-1.435 c 0.064,-0.115 0.126032,-0.232 0.187032,-0.35 L 46.429062,38.40302 A 0.46,0.46 0 0 0 46.73,37.676927 l -0.92,-1.28 a 17.5,17.5 0 0 0 0.115,-0.38 l 1.475937,-0.551875 a 0.46,0.46 0 0 0 0.153125,-0.771094 l -1.155,-1.077031 c 0.014,-0.13 0.02691,-0.260875 0.03891,-0.391875 l 1.342968,-0.831094 a 0.462,0.462 0 0 0 0,-0.785938 L 46.437969,30.775989 A 18.57,18.57 0 0 0 46.4,30.385052 L 47.554062,29.30802 A 0.46,0.46 0 0 0 47.400937,28.536927 L 45.925,27.985052 A 16.798,16.798 0 0 0 45.81,27.603958 l 0.92,-1.278906 a 0.462,0.462 0 0 0 -0.3,-0.727032 l -1.557031,-0.252968 c -0.06,-0.118 -0.123032,-0.234 -0.187032,-0.35 l 0.654063,-1.435 a 0.46,0.46 0 0 0 -0.437031,-0.654063 l -1.578907,0.055 a 12.482,12.482 0 0 0 -0.25,-0.302031 l 0.362969,-1.538906 a 0.461,0.461 0 0 0 -0.556094,-0.556094 l -1.537968,0.362031 c -0.1,-0.084 -0.199969,-0.167 -0.302969,-0.25 l 0.055,-1.577969 a 0.46,0.46 0 0 0 -0.654063,-0.437031 l -1.435,0.654063 a 16.712,16.712 0 0 0 -0.35,-0.188125 l -0.252968,-1.555938 a 0.462,0.462 0 0 0 -0.725938,-0.300937 l -1.28,0.92 a 14.31,14.31 0 0 0 -0.38,-0.115 L 35.465,16.598958 a 0.461,0.461 0 0 0 -0.770938,-0.153906 l -1.077031,1.155937 c -0.13,-0.014 -0.260094,-0.02797 -0.391094,-0.03797 l -0.831875,-1.344062 a 0.462,0.462 0 0 0 -0.546718,-0.192813 z m -0.121719,2.830469 a 0.95,0.95 0 0 1 0.912344,0.267344 0.952,0.952 0 0 1 -0.03203,1.346094 0.949,0.949 0 0 1 -1.342968,-0.03203 0.953,0.953 0 0 1 0.03109,-1.345 0.95,0.95 0 0 1 0.431562,-0.236406 z m 2.430312,1.539375 A 11.71,11.71 0 0 1 42.165,26.100052 l -1.120938,2.531875 a 0.869,0.869 0 0 0 0.44,1.145 l 2.158907,0.958125 c 0.037,0.383 0.05609,0.769968 0.05609,1.162968 H 43.7 c 0,0.289951 -0.01112,0.576861 -0.03281,0.861875 l 0.01031,0.0084 c -0.162248,2.335829 -1.418574,4.872405 -2.261094,6.073594 h -0.0028 c -0.326581,0.442592 -0.684566,0.862236 -1.069532,1.253125 l -2.01,-0.431094 -0.0011,0.0011 A 0.866,0.866 0 0 0 37.305,40.330989 l -0.477031,2.225937 A 11.649,11.649 0 0 1 32,43.596926 c -1.76,0 -3.430062,-0.389875 -4.929062,-1.086875 l -0.476875,-2.225 A 0.866,0.866 0 0 0 25.565938,39.61802 l -1.965,0.422032 a 11.68,11.68 0 0 1 -1.015469,-1.196407 h -0.0014 v -0.0012 h -7.82e-4 C 21.682638,37.726824 21.11557,36.462189 20.74735,35.106977 h -3.13e-4 a 11.714,11.714 0 0 1 -0.38,-4.465938 h 9.38e-4 l 2.047031,-0.91 a 0.868,0.868 0 0 0 0.44,-1.145 l -0.420625,-0.952187 h -3.12e-4 v -7.82e-4 -0.0016 c -0.235305,-0.537234 -0.484545,-1.074488 -0.629375,-1.611719 0.188914,-0.529533 0.890966,-1.338099 1.481406,-1.922656 l 0.02922,-0.0041 H 23.285 a 11.684,11.684 0 0 1 6.545,-3.694062 l 1.462969,1.535 c 0.331,0.346 0.88,0.359969 1.225,0.02797 z m -13.441093,7.0425 a 0.95021182,0.95021182 0 0 1 0.768125,0.559531 0.95021341,0.95021341 0 1 1 -1.737031,0.770938 0.95021182,0.95021182 0 0 1 0.968906,-1.330469 z m 22.470625,0.04625 a 0.95041478,0.95041478 0 0 1 0.968593,1.33125 0.95043539,0.95043539 0 1 1 -1.737031,-0.772031 0.95041478,0.95041478 0 0 1 0.768438,-0.559219 z M 24.710938,40.843958 a 0.9520588,0.9520588 0 0 1 0.398125,1.862031 L 25.11,42.705051 a 0.952,0.952 0 0 1 -0.399062,-1.861093 z m 14.478124,0.04703 A 0.952,0.952 0 0 1 38.79,42.751926 0.952,0.952 0 0 1 39.189062,40.890988 Z" />
    </g>
    <g
       style="display:inline;fill:currentColor;stroke:currentColor;stroke-width:0"
       id="g26"
       transform="matrix(2.7848353,0,0,2.7848353,3.9341504,-52.532186)">
      <path
         stroke="none"
         d="m 37.743576,74.626303 4.483,-7.763 3.532,6.117 a 9.955,9.955 0 0 1 -5.842,1.883 c -0.746,0 -1.473,-0.082 -2.173,-0.237 z m -1.937,-0.643 a 10.029,10.029 0 0 1 -5.432,-6.12 h 8.965 l -3.533,6.119 z m -5.84,-8.12 a 9.964,9.964 0 0 1 2.583,-7.761 l 4.479,7.761 z m 4.109,-9.117 a 9.955,9.955 0 0 1 5.841,-1.883 c 0.746,0 1.473,0.082 2.173,0.237 l -4.483,7.763 z m 9.951,-1.003 a 10.028,10.028 0 0 1 5.432,6.12 h -8.965 l 3.533,-6.119 z m 5.84,8.12 a 9.964,9.964 0 0 1 -2.583,7.761 l -4.479,-7.761 h 7.064 z"
         id="path1-8" />
    </g>
  </g>
</svg>

