<svg xmlns="http://www.w3.org/2000/svg" xml:space="preserve" xmlns:xlink="http://www.w3.org/1999/xlink" style="max-width: 100%;height: auto;" width="984" height="984" viewBox="0 0 984 984">
<g fill="#ab6137">
<g transform="translate(240,48) scale(4.12)"><rect width="6" height="6"></rect></g>
<g transform="translate(312,48) scale(4.12)"><rect width="6" height="6"></rect></g>
<g transform="translate(336,48) scale(4.12)"><rect width="6" height="6"></rect></g>
<g transform="translate(432,48) scale(4.12)"><rect width="6" height="6"></rect></g>
<g transform="translate(480,48) scale(4.12)"><rect width="6" height="6"></rect></g>
<g transform="translate(504,48) scale(4.12)"><rect width="6" height="6"></rect></g>
<g transform="translate(528,48) scale(4.12)"><rect width="6" height="6"></rect></g>
<g transform="translate(552,48) scale(4.12)"><rect width="6" height="6"></rect></g>
<g transform="translate(576,48) scale(4.12)"><rect width="6" height="6"></rect></g>
<g transform="translate(600,48) scale(4.12)"><rect width="6" height="6"></rect></g>
<g transform="translate(624,48) scale(4.12)"><rect width="6" height="6"></rect></g>
<g transform="translate(648,48) scale(4.12)"><rect width="6" height="6"></rect></g>
<g transform="translate(720,48) scale(4.12)"><rect width="6" height="6"></rect></g>
<g transform="translate(240,72) scale(4.12)"><rect width="6" height="6"></rect></g>
<g transform="translate(264,72) scale(4.12)"><rect width="6" height="6"></rect></g>
<g transform="translate(288,72) scale(4.12)"><rect width="6" height="6"></rect></g>
<g transform="translate(312,72) scale(4.12)"><rect width="6" height="6"></rect></g>
<g transform="translate(336,72) scale(4.12)"><rect width="6" height="6"></rect></g>
<g transform="translate(360,72) scale(4.12)"><rect width="6" height="6"></rect></g>
<g transform="translate(384,72) scale(4.12)"><rect width="6" height="6"></rect></g>
<g transform="translate(432,72) scale(4.12)"><rect width="6" height="6"></rect></g>
<g transform="translate(456,72) scale(4.12)"><rect width="6" height="6"></rect></g>
<g transform="translate(480,72) scale(4.12)"><rect width="6" height="6"></rect></g>
<g transform="translate(504,72) scale(4.12)"><rect width="6" height="6"></rect></g>
<g transform="translate(528,72) scale(4.12)"><rect width="6" height="6"></rect></g>
<g transform="translate(552,72) scale(4.12)"><rect width="6" height="6"></rect></g>
<g transform="translate(576,72) scale(4.12)"><rect width="6" height="6"></rect></g>
<g transform="translate(624,72) scale(4.12)"><rect width="6" height="6"></rect></g>
<g transform="translate(696,72) scale(4.12)"><rect width="6" height="6"></rect></g>
<g transform="translate(240,96) scale(4.12)"><rect width="6" height="6"></rect></g>
<g transform="translate(264,96) scale(4.12)"><rect width="6" height="6"></rect></g>
<g transform="translate(360,96) scale(4.12)"><rect width="6" height="6"></rect></g>
<g transform="translate(408,96) scale(4.12)"><rect width="6" height="6"></rect></g>
<g transform="translate(432,96) scale(4.12)"><rect width="6" height="6"></rect></g>
<g transform="translate(480,96) scale(4.12)"><rect width="6" height="6"></rect></g>
<g transform="translate(504,96) scale(4.12)"><rect width="6" height="6"></rect></g>
<g transform="translate(552,96) scale(4.12)"><rect width="6" height="6"></rect></g>
<g transform="translate(624,96) scale(4.12)"><rect width="6" height="6"></rect></g>
<g transform="translate(264,120) scale(4.12)"><rect width="6" height="6"></rect></g>
<g transform="translate(312,120) scale(4.12)"><rect width="6" height="6"></rect></g>
<g transform="translate(360,120) scale(4.12)"><rect width="6" height="6"></rect></g>
<g transform="translate(384,120) scale(4.12)"><rect width="6" height="6"></rect></g>
<g transform="translate(408,120) scale(4.12)"><rect width="6" height="6"></rect></g>
<g transform="translate(432,120) scale(4.12)"><rect width="6" height="6"></rect></g>
<g transform="translate(456,120) scale(4.12)"><rect width="6" height="6"></rect></g>
<g transform="translate(624,120) scale(4.12)"><rect width="6" height="6"></rect></g>
<g transform="translate(648,120) scale(4.12)"><rect width="6" height="6"></rect></g>
<g transform="translate(696,120) scale(4.12)"><rect width="6" height="6"></rect></g>
<g transform="translate(264,144) scale(4.12)"><rect width="6" height="6"></rect></g>
<g transform="translate(288,144) scale(4.12)"><rect width="6" height="6"></rect></g>
<g transform="translate(312,144) scale(4.12)"><rect width="6" height="6"></rect></g>
<g transform="translate(336,144) scale(4.12)"><rect width="6" height="6"></rect></g>
<g transform="translate(360,144) scale(4.12)"><rect width="6" height="6"></rect></g>
<g transform="translate(384,144) scale(4.12)"><rect width="6" height="6"></rect></g>
<g transform="translate(408,144) scale(4.12)"><rect width="6" height="6"></rect></g>
<g transform="translate(456,144) scale(4.12)"><rect width="6" height="6"></rect></g>
<g transform="translate(600,144) scale(4.12)"><rect width="6" height="6"></rect></g>
<g transform="translate(672,144) scale(4.12)"><rect width="6" height="6"></rect></g>
<g transform="translate(240,168) scale(4.12)"><rect width="6" height="6"></rect></g>
<g transform="translate(336,168) scale(4.12)"><rect width="6" height="6"></rect></g>
<g transform="translate(360,168) scale(4.12)"><rect width="6" height="6"></rect></g>
<g transform="translate(408,168) scale(4.12)"><rect width="6" height="6"></rect></g>
<g transform="translate(432,168) scale(4.12)"><rect width="6" height="6"></rect></g>
<g transform="translate(480,168) scale(4.12)"><rect width="6" height="6"></rect></g>
<g transform="translate(504,168) scale(4.12)"><rect width="6" height="6"></rect></g>
<g transform="translate(528,168) scale(4.12)"><rect width="6" height="6"></rect></g>
<g transform="translate(552,168) scale(4.12)"><rect width="6" height="6"></rect></g>
<g transform="translate(624,168) scale(4.12)"><rect width="6" height="6"></rect></g>
<g transform="translate(648,168) scale(4.12)"><rect width="6" height="6"></rect></g>
<g transform="translate(672,168) scale(4.12)"><rect width="6" height="6"></rect></g>
<g transform="translate(696,168) scale(4.12)"><rect width="6" height="6"></rect></g>
<g transform="translate(720,168) scale(4.12)"><rect width="6" height="6"></rect></g>
<g transform="translate(240,192) scale(4.12)"><rect width="6" height="6"></rect></g>
<g transform="translate(288,192) scale(4.12)"><rect width="6" height="6"></rect></g>
<g transform="translate(336,192) scale(4.12)"><rect width="6" height="6"></rect></g>
<g transform="translate(384,192) scale(4.12)"><rect width="6" height="6"></rect></g>
<g transform="translate(432,192) scale(4.12)"><rect width="6" height="6"></rect></g>
<g transform="translate(480,192) scale(4.12)"><rect width="6" height="6"></rect></g>
<g transform="translate(528,192) scale(4.12)"><rect width="6" height="6"></rect></g>
<g transform="translate(576,192) scale(4.12)"><rect width="6" height="6"></rect></g>
<g transform="translate(624,192) scale(4.12)"><rect width="6" height="6"></rect></g>
<g transform="translate(672,192) scale(4.12)"><rect width="6" height="6"></rect></g>
<g transform="translate(720,192) scale(4.12)"><rect width="6" height="6"></rect></g>
<g transform="translate(240,216) scale(4.12)"><rect width="6" height="6"></rect></g>
<g transform="translate(264,216) scale(4.12)"><rect width="6" height="6"></rect></g>
<g transform="translate(312,216) scale(4.12)"><rect width="6" height="6"></rect></g>
<g transform="translate(336,216) scale(4.12)"><rect width="6" height="6"></rect></g>
<g transform="translate(384,216) scale(4.12)"><rect width="6" height="6"></rect></g>
<g transform="translate(456,216) scale(4.12)"><rect width="6" height="6"></rect></g>
<g transform="translate(504,216) scale(4.12)"><rect width="6" height="6"></rect></g>
<g transform="translate(552,216) scale(4.12)"><rect width="6" height="6"></rect></g>
<g transform="translate(576,216) scale(4.12)"><rect width="6" height="6"></rect></g>
<g transform="translate(600,216) scale(4.12)"><rect width="6" height="6"></rect></g>
<g transform="translate(624,216) scale(4.12)"><rect width="6" height="6"></rect></g>
<g transform="translate(672,216) scale(4.12)"><rect width="6" height="6"></rect></g>
<g transform="translate(720,216) scale(4.12)"><rect width="6" height="6"></rect></g>
<g transform="translate(96,240) scale(4.12)"><rect width="6" height="6"></rect></g>
<g transform="translate(120,240) scale(4.12)"><rect width="6" height="6"></rect></g>
<g transform="translate(144,240) scale(4.12)"><rect width="6" height="6"></rect></g>
<g transform="translate(192,240) scale(4.12)"><rect width="6" height="6"></rect></g>
<g transform="translate(240,240) scale(4.12)"><rect width="6" height="6"></rect></g>
<g transform="translate(264,240) scale(4.12)"><rect width="6" height="6"></rect></g>
<g transform="translate(288,240) scale(4.12)"><rect width="6" height="6"></rect></g>
<g transform="translate(336,240) scale(4.12)"><rect width="6" height="6"></rect></g>
<g transform="translate(360,240) scale(4.12)"><rect width="6" height="6"></rect></g>
<g transform="translate(384,240) scale(4.12)"><rect width="6" height="6"></rect></g>
<g transform="translate(408,240) scale(4.12)"><rect width="6" height="6"></rect></g>
<g transform="translate(456,240) scale(4.12)"><rect width="6" height="6"></rect></g>
<g transform="translate(504,240) scale(4.12)"><rect width="6" height="6"></rect></g>
<g transform="translate(528,240) scale(4.12)"><rect width="6" height="6"></rect></g>
<g transform="translate(552,240) scale(4.12)"><rect width="6" height="6"></rect></g>
<g transform="translate(600,240) scale(4.12)"><rect width="6" height="6"></rect></g>
<g transform="translate(624,240) scale(4.12)"><rect width="6" height="6"></rect></g>
<g transform="translate(672,240) scale(4.12)"><rect width="6" height="6"></rect></g>
<g transform="translate(744,240) scale(4.12)"><rect width="6" height="6"></rect></g>
<g transform="translate(768,240) scale(4.12)"><rect width="6" height="6"></rect></g>
<g transform="translate(792,240) scale(4.12)"><rect width="6" height="6"></rect></g>
<g transform="translate(864,240) scale(4.12)"><rect width="6" height="6"></rect></g>
<g transform="translate(888,240) scale(4.12)"><rect width="6" height="6"></rect></g>
<g transform="translate(912,240) scale(4.12)"><rect width="6" height="6"></rect></g>
<g transform="translate(48,264) scale(4.12)"><rect width="6" height="6"></rect></g>
<g transform="translate(168,264) scale(4.12)"><rect width="6" height="6"></rect></g>
<g transform="translate(216,264) scale(4.12)"><rect width="6" height="6"></rect></g>
<g transform="translate(264,264) scale(4.12)"><rect width="6" height="6"></rect></g>
<g transform="translate(288,264) scale(4.12)"><rect width="6" height="6"></rect></g>
<g transform="translate(312,264) scale(4.12)"><rect width="6" height="6"></rect></g>
<g transform="translate(360,264) scale(4.12)"><rect width="6" height="6"></rect></g>
<g transform="translate(456,264) scale(4.12)"><rect width="6" height="6"></rect></g>
<g transform="translate(480,264) scale(4.12)"><rect width="6" height="6"></rect></g>
<g transform="translate(504,264) scale(4.12)"><rect width="6" height="6"></rect></g>
<g transform="translate(528,264) scale(4.12)"><rect width="6" height="6"></rect></g>
<g transform="translate(600,264) scale(4.12)"><rect width="6" height="6"></rect></g>
<g transform="translate(648,264) scale(4.12)"><rect width="6" height="6"></rect></g>
<g transform="translate(720,264) scale(4.12)"><rect width="6" height="6"></rect></g>
<g transform="translate(792,264) scale(4.12)"><rect width="6" height="6"></rect></g>
<g transform="translate(72,288) scale(4.12)"><rect width="6" height="6"></rect></g>
<g transform="translate(120,288) scale(4.12)"><rect width="6" height="6"></rect></g>
<g transform="translate(192,288) scale(4.12)"><rect width="6" height="6"></rect></g>
<g transform="translate(216,288) scale(4.12)"><rect width="6" height="6"></rect></g>
<g transform="translate(264,288) scale(4.12)"><rect width="6" height="6"></rect></g>
<g transform="translate(288,288) scale(4.12)"><rect width="6" height="6"></rect></g>
<g transform="translate(312,288) scale(4.12)"><rect width="6" height="6"></rect></g>
<g transform="translate(336,288) scale(4.12)"><rect width="6" height="6"></rect></g>
<g transform="translate(408,288) scale(4.12)"><rect width="6" height="6"></rect></g>
<g transform="translate(432,288) scale(4.12)"><rect width="6" height="6"></rect></g>
<g transform="translate(480,288) scale(4.12)"><rect width="6" height="6"></rect></g>
<g transform="translate(504,288) scale(4.12)"><rect width="6" height="6"></rect></g>
<g transform="translate(552,288) scale(4.12)"><rect width="6" height="6"></rect></g>
<g transform="translate(576,288) scale(4.12)"><rect width="6" height="6"></rect></g>
<g transform="translate(600,288) scale(4.12)"><rect width="6" height="6"></rect></g>
<g transform="translate(624,288) scale(4.12)"><rect width="6" height="6"></rect></g>
<g transform="translate(648,288) scale(4.12)"><rect width="6" height="6"></rect></g>
<g transform="translate(672,288) scale(4.12)"><rect width="6" height="6"></rect></g>
<g transform="translate(696,288) scale(4.12)"><rect width="6" height="6"></rect></g>
<g transform="translate(768,288) scale(4.12)"><rect width="6" height="6"></rect></g>
<g transform="translate(816,288) scale(4.12)"><rect width="6" height="6"></rect></g>
<g transform="translate(840,288) scale(4.12)"><rect width="6" height="6"></rect></g>
<g transform="translate(864,288) scale(4.12)"><rect width="6" height="6"></rect></g>
<g transform="translate(888,288) scale(4.12)"><rect width="6" height="6"></rect></g>
<g transform="translate(912,288) scale(4.12)"><rect width="6" height="6"></rect></g>
<g transform="translate(72,312) scale(4.12)"><rect width="6" height="6"></rect></g>
<g transform="translate(288,312) scale(4.12)"><rect width="6" height="6"></rect></g>
<g transform="translate(336,312) scale(4.12)"><rect width="6" height="6"></rect></g>
<g transform="translate(360,312) scale(4.12)"><rect width="6" height="6"></rect></g>
<g transform="translate(384,312) scale(4.12)"><rect width="6" height="6"></rect></g>
<g transform="translate(480,312) scale(4.12)"><rect width="6" height="6"></rect></g>
<g transform="translate(504,312) scale(4.12)"><rect width="6" height="6"></rect></g>
<g transform="translate(528,312) scale(4.12)"><rect width="6" height="6"></rect></g>
<g transform="translate(552,312) scale(4.12)"><rect width="6" height="6"></rect></g>
<g transform="translate(576,312) scale(4.12)"><rect width="6" height="6"></rect></g>
<g transform="translate(600,312) scale(4.12)"><rect width="6" height="6"></rect></g>
<g transform="translate(672,312) scale(4.12)"><rect width="6" height="6"></rect></g>
<g transform="translate(696,312) scale(4.12)"><rect width="6" height="6"></rect></g>
<g transform="translate(768,312) scale(4.12)"><rect width="6" height="6"></rect></g>
<g transform="translate(816,312) scale(4.12)"><rect width="6" height="6"></rect></g>
<g transform="translate(888,312) scale(4.12)"><rect width="6" height="6"></rect></g>
<g transform="translate(96,336) scale(4.12)"><rect width="6" height="6"></rect></g>
<g transform="translate(192,336) scale(4.12)"><rect width="6" height="6"></rect></g>
<g transform="translate(216,336) scale(4.12)"><rect width="6" height="6"></rect></g>
<g transform="translate(240,336) scale(4.12)"><rect width="6" height="6"></rect></g>
<g transform="translate(312,336) scale(4.12)"><rect width="6" height="6"></rect></g>
<g transform="translate(336,336) scale(4.12)"><rect width="6" height="6"></rect></g>
<g transform="translate(360,336) scale(4.12)"><rect width="6" height="6"></rect></g>
<g transform="translate(384,336) scale(4.12)"><rect width="6" height="6"></rect></g>
<g transform="translate(456,336) scale(4.12)"><rect width="6" height="6"></rect></g>
<g transform="translate(480,336) scale(4.12)"><rect width="6" height="6"></rect></g>
<g transform="translate(552,336) scale(4.12)"><rect width="6" height="6"></rect></g>
<g transform="translate(576,336) scale(4.12)"><rect width="6" height="6"></rect></g>
<g transform="translate(600,336) scale(4.12)"><rect width="6" height="6"></rect></g>
<g transform="translate(624,336) scale(4.12)"><rect width="6" height="6"></rect></g>
<g transform="translate(648,336) scale(4.12)"><rect width="6" height="6"></rect></g>
<g transform="translate(672,336) scale(4.12)"><rect width="6" height="6"></rect></g>
<g transform="translate(696,336) scale(4.12)"><rect width="6" height="6"></rect></g>
<g transform="translate(744,336) scale(4.12)"><rect width="6" height="6"></rect></g>
<g transform="translate(768,336) scale(4.12)"><rect width="6" height="6"></rect></g>
<g transform="translate(816,336) scale(4.12)"><rect width="6" height="6"></rect></g>
<g transform="translate(840,336) scale(4.12)"><rect width="6" height="6"></rect></g>
<g transform="translate(888,336) scale(4.12)"><rect width="6" height="6"></rect></g>
<g transform="translate(48,360) scale(4.12)"><rect width="6" height="6"></rect></g>
<g transform="translate(72,360) scale(4.12)"><rect width="6" height="6"></rect></g>
<g transform="translate(96,360) scale(4.12)"><rect width="6" height="6"></rect></g>
<g transform="translate(168,360) scale(4.12)"><rect width="6" height="6"></rect></g>
<g transform="translate(216,360) scale(4.12)"><rect width="6" height="6"></rect></g>
<g transform="translate(288,360) scale(4.12)"><rect width="6" height="6"></rect></g>
<g transform="translate(360,360) scale(4.12)"><rect width="6" height="6"></rect></g>
<g transform="translate(408,360) scale(4.12)"><rect width="6" height="6"></rect></g>
<g transform="translate(480,360) scale(4.12)"><rect width="6" height="6"></rect></g>
<g transform="translate(552,360) scale(4.12)"><rect width="6" height="6"></rect></g>
<g transform="translate(600,360) scale(4.12)"><rect width="6" height="6"></rect></g>
<g transform="translate(624,360) scale(4.12)"><rect width="6" height="6"></rect></g>
<g transform="translate(672,360) scale(4.12)"><rect width="6" height="6"></rect></g>
<g transform="translate(720,360) scale(4.12)"><rect width="6" height="6"></rect></g>
<g transform="translate(744,360) scale(4.12)"><rect width="6" height="6"></rect></g>
<g transform="translate(792,360) scale(4.12)"><rect width="6" height="6"></rect></g>
<g transform="translate(840,360) scale(4.12)"><rect width="6" height="6"></rect></g>
<g transform="translate(864,360) scale(4.12)"><rect width="6" height="6"></rect></g>
<g transform="translate(48,384) scale(4.12)"><rect width="6" height="6"></rect></g>
<g transform="translate(72,384) scale(4.12)"><rect width="6" height="6"></rect></g>
<g transform="translate(96,384) scale(4.12)"><rect width="6" height="6"></rect></g>
<g transform="translate(120,384) scale(4.12)"><rect width="6" height="6"></rect></g>
<g transform="translate(168,384) scale(4.12)"><rect width="6" height="6"></rect></g>
<g transform="translate(192,384) scale(4.12)"><rect width="6" height="6"></rect></g>
<g transform="translate(264,384) scale(4.12)"><rect width="6" height="6"></rect></g>
<g transform="translate(384,384) scale(4.12)"><rect width="6" height="6"></rect></g>
<g transform="translate(432,384) scale(4.12)"><rect width="6" height="6"></rect></g>
<g transform="translate(456,384) scale(4.12)"><rect width="6" height="6"></rect></g>
<g transform="translate(528,384) scale(4.12)"><rect width="6" height="6"></rect></g>
<g transform="translate(552,384) scale(4.12)"><rect width="6" height="6"></rect></g>
<g transform="translate(576,384) scale(4.12)"><rect width="6" height="6"></rect></g>
<g transform="translate(624,384) scale(4.12)"><rect width="6" height="6"></rect></g>
<g transform="translate(672,384) scale(4.12)"><rect width="6" height="6"></rect></g>
<g transform="translate(696,384) scale(4.12)"><rect width="6" height="6"></rect></g>
<g transform="translate(720,384) scale(4.12)"><rect width="6" height="6"></rect></g>
<g transform="translate(744,384) scale(4.12)"><rect width="6" height="6"></rect></g>
<g transform="translate(768,384) scale(4.12)"><rect width="6" height="6"></rect></g>
<g transform="translate(792,384) scale(4.12)"><rect width="6" height="6"></rect></g>
<g transform="translate(816,384) scale(4.12)"><rect width="6" height="6"></rect></g>
<g transform="translate(840,384) scale(4.12)"><rect width="6" height="6"></rect></g>
<g transform="translate(912,384) scale(4.12)"><rect width="6" height="6"></rect></g>
<g transform="translate(96,408) scale(4.12)"><rect width="6" height="6"></rect></g>
<g transform="translate(120,408) scale(4.12)"><rect width="6" height="6"></rect></g>
<g transform="translate(264,408) scale(4.12)"><rect width="6" height="6"></rect></g>
<g transform="translate(312,408) scale(4.12)"><rect width="6" height="6"></rect></g>
<g transform="translate(336,408) scale(4.12)"><rect width="6" height="6"></rect></g>
<g transform="translate(384,408) scale(4.12)"><rect width="6" height="6"></rect></g>
<g transform="translate(408,408) scale(4.12)"><rect width="6" height="6"></rect></g>
<g transform="translate(432,408) scale(4.12)"><rect width="6" height="6"></rect></g>
<g transform="translate(480,408) scale(4.12)"><rect width="6" height="6"></rect></g>
<g transform="translate(576,408) scale(4.12)"><rect width="6" height="6"></rect></g>
<g transform="translate(672,408) scale(4.12)"><rect width="6" height="6"></rect></g>
<g transform="translate(744,408) scale(4.12)"><rect width="6" height="6"></rect></g>
<g transform="translate(768,408) scale(4.12)"><rect width="6" height="6"></rect></g>
<g transform="translate(792,408) scale(4.12)"><rect width="6" height="6"></rect></g>
<g transform="translate(888,408) scale(4.12)"><rect width="6" height="6"></rect></g>
<g transform="translate(48,432) scale(4.12)"><rect width="6" height="6"></rect></g>
<g transform="translate(120,432) scale(4.12)"><rect width="6" height="6"></rect></g>
<g transform="translate(168,432) scale(4.12)"><rect width="6" height="6"></rect></g>
<g transform="translate(192,432) scale(4.12)"><rect width="6" height="6"></rect></g>
<g transform="translate(264,432) scale(4.12)"><rect width="6" height="6"></rect></g>
<g transform="translate(360,432) scale(4.12)"><rect width="6" height="6"></rect></g>
<g transform="translate(384,432) scale(4.12)"><rect width="6" height="6"></rect></g>
<g transform="translate(408,432) scale(4.12)"><rect width="6" height="6"></rect></g>
<g transform="translate(432,432) scale(4.12)"><rect width="6" height="6"></rect></g>
<g transform="translate(504,432) scale(4.12)"><rect width="6" height="6"></rect></g>
<g transform="translate(528,432) scale(4.12)"><rect width="6" height="6"></rect></g>
<g transform="translate(600,432) scale(4.12)"><rect width="6" height="6"></rect></g>
<g transform="translate(624,432) scale(4.12)"><rect width="6" height="6"></rect></g>
<g transform="translate(648,432) scale(4.12)"><rect width="6" height="6"></rect></g>
<g transform="translate(696,432) scale(4.12)"><rect width="6" height="6"></rect></g>
<g transform="translate(744,432) scale(4.12)"><rect width="6" height="6"></rect></g>
<g transform="translate(768,432) scale(4.12)"><rect width="6" height="6"></rect></g>
<g transform="translate(792,432) scale(4.12)"><rect width="6" height="6"></rect></g>
<g transform="translate(816,432) scale(4.12)"><rect width="6" height="6"></rect></g>
<g transform="translate(864,432) scale(4.12)"><rect width="6" height="6"></rect></g>
<g transform="translate(888,432) scale(4.12)"><rect width="6" height="6"></rect></g>
<g transform="translate(912,432) scale(4.12)"><rect width="6" height="6"></rect></g>
<g transform="translate(48,456) scale(4.12)"><rect width="6" height="6"></rect></g>
<g transform="translate(72,456) scale(4.12)"><rect width="6" height="6"></rect></g>
<g transform="translate(120,456) scale(4.12)"><rect width="6" height="6"></rect></g>
<g transform="translate(168,456) scale(4.12)"><rect width="6" height="6"></rect></g>
<g transform="translate(216,456) scale(4.12)"><rect width="6" height="6"></rect></g>
<g transform="translate(240,456) scale(4.12)"><rect width="6" height="6"></rect></g>
<g transform="translate(312,456) scale(4.12)"><rect width="6" height="6"></rect></g>
<g transform="translate(336,456) scale(4.12)"><rect width="6" height="6"></rect></g>
<g transform="translate(360,456) scale(4.12)"><rect width="6" height="6"></rect></g>
<g transform="translate(408,456) scale(4.12)"><rect width="6" height="6"></rect></g>
<g transform="translate(456,456) scale(4.12)"><rect width="6" height="6"></rect></g>
<g transform="translate(480,456) scale(4.12)"><rect width="6" height="6"></rect></g>
<g transform="translate(552,456) scale(4.12)"><rect width="6" height="6"></rect></g>
<g transform="translate(624,456) scale(4.12)"><rect width="6" height="6"></rect></g>
<g transform="translate(648,456) scale(4.12)"><rect width="6" height="6"></rect></g>
<g transform="translate(720,456) scale(4.12)"><rect width="6" height="6"></rect></g>
<g transform="translate(744,456) scale(4.12)"><rect width="6" height="6"></rect></g>
<g transform="translate(792,456) scale(4.12)"><rect width="6" height="6"></rect></g>
<g transform="translate(864,456) scale(4.12)"><rect width="6" height="6"></rect></g>
<g transform="translate(48,480) scale(4.12)"><rect width="6" height="6"></rect></g>
<g transform="translate(96,480) scale(4.12)"><rect width="6" height="6"></rect></g>
<g transform="translate(144,480) scale(4.12)"><rect width="6" height="6"></rect></g>
<g transform="translate(192,480) scale(4.12)"><rect width="6" height="6"></rect></g>
<g transform="translate(264,480) scale(4.12)"><rect width="6" height="6"></rect></g>
<g transform="translate(312,480) scale(4.12)"><rect width="6" height="6"></rect></g>
<g transform="translate(360,480) scale(4.12)"><rect width="6" height="6"></rect></g>
<g transform="translate(432,480) scale(4.12)"><rect width="6" height="6"></rect></g>
<g transform="translate(528,480) scale(4.12)"><rect width="6" height="6"></rect></g>
<g transform="translate(552,480) scale(4.12)"><rect width="6" height="6"></rect></g>
<g transform="translate(648,480) scale(4.12)"><rect width="6" height="6"></rect></g>
<g transform="translate(672,480) scale(4.12)"><rect width="6" height="6"></rect></g>
<g transform="translate(696,480) scale(4.12)"><rect width="6" height="6"></rect></g>
<g transform="translate(720,480) scale(4.12)"><rect width="6" height="6"></rect></g>
<g transform="translate(768,480) scale(4.12)"><rect width="6" height="6"></rect></g>
<g transform="translate(792,480) scale(4.12)"><rect width="6" height="6"></rect></g>
<g transform="translate(816,480) scale(4.12)"><rect width="6" height="6"></rect></g>
<g transform="translate(840,480) scale(4.12)"><rect width="6" height="6"></rect></g>
<g transform="translate(864,480) scale(4.12)"><rect width="6" height="6"></rect></g>
<g transform="translate(888,480) scale(4.12)"><rect width="6" height="6"></rect></g>
<g transform="translate(912,480) scale(4.12)"><rect width="6" height="6"></rect></g>
<g transform="translate(72,504) scale(4.12)"><rect width="6" height="6"></rect></g>
<g transform="translate(240,504) scale(4.12)"><rect width="6" height="6"></rect></g>
<g transform="translate(288,504) scale(4.12)"><rect width="6" height="6"></rect></g>
<g transform="translate(312,504) scale(4.12)"><rect width="6" height="6"></rect></g>
<g transform="translate(336,504) scale(4.12)"><rect width="6" height="6"></rect></g>
<g transform="translate(408,504) scale(4.12)"><rect width="6" height="6"></rect></g>
<g transform="translate(432,504) scale(4.12)"><rect width="6" height="6"></rect></g>
<g transform="translate(456,504) scale(4.12)"><rect width="6" height="6"></rect></g>
<g transform="translate(528,504) scale(4.12)"><rect width="6" height="6"></rect></g>
<g transform="translate(552,504) scale(4.12)"><rect width="6" height="6"></rect></g>
<g transform="translate(576,504) scale(4.12)"><rect width="6" height="6"></rect></g>
<g transform="translate(672,504) scale(4.12)"><rect width="6" height="6"></rect></g>
<g transform="translate(696,504) scale(4.12)"><rect width="6" height="6"></rect></g>
<g transform="translate(720,504) scale(4.12)"><rect width="6" height="6"></rect></g>
<g transform="translate(744,504) scale(4.12)"><rect width="6" height="6"></rect></g>
<g transform="translate(768,504) scale(4.12)"><rect width="6" height="6"></rect></g>
<g transform="translate(792,504) scale(4.12)"><rect width="6" height="6"></rect></g>
<g transform="translate(816,504) scale(4.12)"><rect width="6" height="6"></rect></g>
<g transform="translate(888,504) scale(4.12)"><rect width="6" height="6"></rect></g>
<g transform="translate(48,528) scale(4.12)"><rect width="6" height="6"></rect></g>
<g transform="translate(120,528) scale(4.12)"><rect width="6" height="6"></rect></g>
<g transform="translate(144,528) scale(4.12)"><rect width="6" height="6"></rect></g>
<g transform="translate(192,528) scale(4.12)"><rect width="6" height="6"></rect></g>
<g transform="translate(264,528) scale(4.12)"><rect width="6" height="6"></rect></g>
<g transform="translate(288,528) scale(4.12)"><rect width="6" height="6"></rect></g>
<g transform="translate(312,528) scale(4.12)"><rect width="6" height="6"></rect></g>
<g transform="translate(336,528) scale(4.12)"><rect width="6" height="6"></rect></g>
<g transform="translate(360,528) scale(4.12)"><rect width="6" height="6"></rect></g>
<g transform="translate(408,528) scale(4.12)"><rect width="6" height="6"></rect></g>
<g transform="translate(432,528) scale(4.12)"><rect width="6" height="6"></rect></g>
<g transform="translate(504,528) scale(4.12)"><rect width="6" height="6"></rect></g>
<g transform="translate(528,528) scale(4.12)"><rect width="6" height="6"></rect></g>
<g transform="translate(552,528) scale(4.12)"><rect width="6" height="6"></rect></g>
<g transform="translate(600,528) scale(4.12)"><rect width="6" height="6"></rect></g>
<g transform="translate(648,528) scale(4.12)"><rect width="6" height="6"></rect></g>
<g transform="translate(672,528) scale(4.12)"><rect width="6" height="6"></rect></g>
<g transform="translate(696,528) scale(4.12)"><rect width="6" height="6"></rect></g>
<g transform="translate(744,528) scale(4.12)"><rect width="6" height="6"></rect></g>
<g transform="translate(768,528) scale(4.12)"><rect width="6" height="6"></rect></g>
<g transform="translate(792,528) scale(4.12)"><rect width="6" height="6"></rect></g>
<g transform="translate(816,528) scale(4.12)"><rect width="6" height="6"></rect></g>
<g transform="translate(864,528) scale(4.12)"><rect width="6" height="6"></rect></g>
<g transform="translate(72,552) scale(4.12)"><rect width="6" height="6"></rect></g>
<g transform="translate(96,552) scale(4.12)"><rect width="6" height="6"></rect></g>
<g transform="translate(144,552) scale(4.12)"><rect width="6" height="6"></rect></g>
<g transform="translate(168,552) scale(4.12)"><rect width="6" height="6"></rect></g>
<g transform="translate(216,552) scale(4.12)"><rect width="6" height="6"></rect></g>
<g transform="translate(240,552) scale(4.12)"><rect width="6" height="6"></rect></g>
<g transform="translate(288,552) scale(4.12)"><rect width="6" height="6"></rect></g>
<g transform="translate(312,552) scale(4.12)"><rect width="6" height="6"></rect></g>
<g transform="translate(336,552) scale(4.12)"><rect width="6" height="6"></rect></g>
<g transform="translate(432,552) scale(4.12)"><rect width="6" height="6"></rect></g>
<g transform="translate(480,552) scale(4.12)"><rect width="6" height="6"></rect></g>
<g transform="translate(528,552) scale(4.12)"><rect width="6" height="6"></rect></g>
<g transform="translate(552,552) scale(4.12)"><rect width="6" height="6"></rect></g>
<g transform="translate(576,552) scale(4.12)"><rect width="6" height="6"></rect></g>
<g transform="translate(600,552) scale(4.12)"><rect width="6" height="6"></rect></g>
<g transform="translate(624,552) scale(4.12)"><rect width="6" height="6"></rect></g>
<g transform="translate(672,552) scale(4.12)"><rect width="6" height="6"></rect></g>
<g transform="translate(744,552) scale(4.12)"><rect width="6" height="6"></rect></g>
<g transform="translate(792,552) scale(4.12)"><rect width="6" height="6"></rect></g>
<g transform="translate(864,552) scale(4.12)"><rect width="6" height="6"></rect></g>
<g transform="translate(888,552) scale(4.12)"><rect width="6" height="6"></rect></g>
<g transform="translate(48,576) scale(4.12)"><rect width="6" height="6"></rect></g>
<g transform="translate(120,576) scale(4.12)"><rect width="6" height="6"></rect></g>
<g transform="translate(144,576) scale(4.12)"><rect width="6" height="6"></rect></g>
<g transform="translate(168,576) scale(4.12)"><rect width="6" height="6"></rect></g>
<g transform="translate(192,576) scale(4.12)"><rect width="6" height="6"></rect></g>
<g transform="translate(216,576) scale(4.12)"><rect width="6" height="6"></rect></g>
<g transform="translate(240,576) scale(4.12)"><rect width="6" height="6"></rect></g>
<g transform="translate(288,576) scale(4.12)"><rect width="6" height="6"></rect></g>
<g transform="translate(312,576) scale(4.12)"><rect width="6" height="6"></rect></g>
<g transform="translate(384,576) scale(4.12)"><rect width="6" height="6"></rect></g>
<g transform="translate(432,576) scale(4.12)"><rect width="6" height="6"></rect></g>
<g transform="translate(480,576) scale(4.12)"><rect width="6" height="6"></rect></g>
<g transform="translate(504,576) scale(4.12)"><rect width="6" height="6"></rect></g>
<g transform="translate(576,576) scale(4.12)"><rect width="6" height="6"></rect></g>
<g transform="translate(600,576) scale(4.12)"><rect width="6" height="6"></rect></g>
<g transform="translate(624,576) scale(4.12)"><rect width="6" height="6"></rect></g>
<g transform="translate(648,576) scale(4.12)"><rect width="6" height="6"></rect></g>
<g transform="translate(672,576) scale(4.12)"><rect width="6" height="6"></rect></g>
<g transform="translate(696,576) scale(4.12)"><rect width="6" height="6"></rect></g>
<g transform="translate(744,576) scale(4.12)"><rect width="6" height="6"></rect></g>
<g transform="translate(888,576) scale(4.12)"><rect width="6" height="6"></rect></g>
<g transform="translate(912,576) scale(4.12)"><rect width="6" height="6"></rect></g>
<g transform="translate(96,600) scale(4.12)"><rect width="6" height="6"></rect></g>
<g transform="translate(168,600) scale(4.12)"><rect width="6" height="6"></rect></g>
<g transform="translate(360,600) scale(4.12)"><rect width="6" height="6"></rect></g>
<g transform="translate(408,600) scale(4.12)"><rect width="6" height="6"></rect></g>
<g transform="translate(432,600) scale(4.12)"><rect width="6" height="6"></rect></g>
<g transform="translate(504,600) scale(4.12)"><rect width="6" height="6"></rect></g>
<g transform="translate(576,600) scale(4.12)"><rect width="6" height="6"></rect></g>
<g transform="translate(672,600) scale(4.12)"><rect width="6" height="6"></rect></g>
<g transform="translate(744,600) scale(4.12)"><rect width="6" height="6"></rect></g>
<g transform="translate(792,600) scale(4.12)"><rect width="6" height="6"></rect></g>
<g transform="translate(840,600) scale(4.12)"><rect width="6" height="6"></rect></g>
<g transform="translate(912,600) scale(4.12)"><rect width="6" height="6"></rect></g>
<g transform="translate(48,624) scale(4.12)"><rect width="6" height="6"></rect></g>
<g transform="translate(72,624) scale(4.12)"><rect width="6" height="6"></rect></g>
<g transform="translate(96,624) scale(4.12)"><rect width="6" height="6"></rect></g>
<g transform="translate(144,624) scale(4.12)"><rect width="6" height="6"></rect></g>
<g transform="translate(168,624) scale(4.12)"><rect width="6" height="6"></rect></g>
<g transform="translate(192,624) scale(4.12)"><rect width="6" height="6"></rect></g>
<g transform="translate(288,624) scale(4.12)"><rect width="6" height="6"></rect></g>
<g transform="translate(336,624) scale(4.12)"><rect width="6" height="6"></rect></g>
<g transform="translate(408,624) scale(4.12)"><rect width="6" height="6"></rect></g>
<g transform="translate(432,624) scale(4.12)"><rect width="6" height="6"></rect></g>
<g transform="translate(480,624) scale(4.12)"><rect width="6" height="6"></rect></g>
<g transform="translate(528,624) scale(4.12)"><rect width="6" height="6"></rect></g>
<g transform="translate(576,624) scale(4.12)"><rect width="6" height="6"></rect></g>
<g transform="translate(600,624) scale(4.12)"><rect width="6" height="6"></rect></g>
<g transform="translate(624,624) scale(4.12)"><rect width="6" height="6"></rect></g>
<g transform="translate(648,624) scale(4.12)"><rect width="6" height="6"></rect></g>
<g transform="translate(720,624) scale(4.12)"><rect width="6" height="6"></rect></g>
<g transform="translate(768,624) scale(4.12)"><rect width="6" height="6"></rect></g>
<g transform="translate(816,624) scale(4.12)"><rect width="6" height="6"></rect></g>
<g transform="translate(840,624) scale(4.12)"><rect width="6" height="6"></rect></g>
<g transform="translate(864,624) scale(4.12)"><rect width="6" height="6"></rect></g>
<g transform="translate(48,648) scale(4.12)"><rect width="6" height="6"></rect></g>
<g transform="translate(72,648) scale(4.12)"><rect width="6" height="6"></rect></g>
<g transform="translate(96,648) scale(4.12)"><rect width="6" height="6"></rect></g>
<g transform="translate(120,648) scale(4.12)"><rect width="6" height="6"></rect></g>
<g transform="translate(216,648) scale(4.12)"><rect width="6" height="6"></rect></g>
<g transform="translate(240,648) scale(4.12)"><rect width="6" height="6"></rect></g>
<g transform="translate(264,648) scale(4.12)"><rect width="6" height="6"></rect></g>
<g transform="translate(336,648) scale(4.12)"><rect width="6" height="6"></rect></g>
<g transform="translate(360,648) scale(4.12)"><rect width="6" height="6"></rect></g>
<g transform="translate(384,648) scale(4.12)"><rect width="6" height="6"></rect></g>
<g transform="translate(408,648) scale(4.12)"><rect width="6" height="6"></rect></g>
<g transform="translate(432,648) scale(4.12)"><rect width="6" height="6"></rect></g>
<g transform="translate(456,648) scale(4.12)"><rect width="6" height="6"></rect></g>
<g transform="translate(480,648) scale(4.12)"><rect width="6" height="6"></rect></g>
<g transform="translate(528,648) scale(4.12)"><rect width="6" height="6"></rect></g>
<g transform="translate(672,648) scale(4.12)"><rect width="6" height="6"></rect></g>
<g transform="translate(696,648) scale(4.12)"><rect width="6" height="6"></rect></g>
<g transform="translate(720,648) scale(4.12)"><rect width="6" height="6"></rect></g>
<g transform="translate(744,648) scale(4.12)"><rect width="6" height="6"></rect></g>
<g transform="translate(792,648) scale(4.12)"><rect width="6" height="6"></rect></g>
<g transform="translate(48,672) scale(4.12)"><rect width="6" height="6"></rect></g>
<g transform="translate(96,672) scale(4.12)"><rect width="6" height="6"></rect></g>
<g transform="translate(120,672) scale(4.12)"><rect width="6" height="6"></rect></g>
<g transform="translate(192,672) scale(4.12)"><rect width="6" height="6"></rect></g>
<g transform="translate(216,672) scale(4.12)"><rect width="6" height="6"></rect></g>
<g transform="translate(240,672) scale(4.12)"><rect width="6" height="6"></rect></g>
<g transform="translate(264,672) scale(4.12)"><rect width="6" height="6"></rect></g>
<g transform="translate(288,672) scale(4.12)"><rect width="6" height="6"></rect></g>
<g transform="translate(336,672) scale(4.12)"><rect width="6" height="6"></rect></g>
<g transform="translate(360,672) scale(4.12)"><rect width="6" height="6"></rect></g>
<g transform="translate(384,672) scale(4.12)"><rect width="6" height="6"></rect></g>
<g transform="translate(432,672) scale(4.12)"><rect width="6" height="6"></rect></g>
<g transform="translate(480,672) scale(4.12)"><rect width="6" height="6"></rect></g>
<g transform="translate(504,672) scale(4.12)"><rect width="6" height="6"></rect></g>
<g transform="translate(576,672) scale(4.12)"><rect width="6" height="6"></rect></g>
<g transform="translate(600,672) scale(4.12)"><rect width="6" height="6"></rect></g>
<g transform="translate(624,672) scale(4.12)"><rect width="6" height="6"></rect></g>
<g transform="translate(648,672) scale(4.12)"><rect width="6" height="6"></rect></g>
<g transform="translate(672,672) scale(4.12)"><rect width="6" height="6"></rect></g>
<g transform="translate(696,672) scale(4.12)"><rect width="6" height="6"></rect></g>
<g transform="translate(720,672) scale(4.12)"><rect width="6" height="6"></rect></g>
<g transform="translate(768,672) scale(4.12)"><rect width="6" height="6"></rect></g>
<g transform="translate(816,672) scale(4.12)"><rect width="6" height="6"></rect></g>
<g transform="translate(840,672) scale(4.12)"><rect width="6" height="6"></rect></g>
<g transform="translate(864,672) scale(4.12)"><rect width="6" height="6"></rect></g>
<g transform="translate(888,672) scale(4.12)"><rect width="6" height="6"></rect></g>
<g transform="translate(912,672) scale(4.12)"><rect width="6" height="6"></rect></g>
<g transform="translate(48,696) scale(4.12)"><rect width="6" height="6"></rect></g>
<g transform="translate(96,696) scale(4.12)"><rect width="6" height="6"></rect></g>
<g transform="translate(120,696) scale(4.12)"><rect width="6" height="6"></rect></g>
<g transform="translate(168,696) scale(4.12)"><rect width="6" height="6"></rect></g>
<g transform="translate(216,696) scale(4.12)"><rect width="6" height="6"></rect></g>
<g transform="translate(312,696) scale(4.12)"><rect width="6" height="6"></rect></g>
<g transform="translate(360,696) scale(4.12)"><rect width="6" height="6"></rect></g>
<g transform="translate(432,696) scale(4.12)"><rect width="6" height="6"></rect></g>
<g transform="translate(456,696) scale(4.12)"><rect width="6" height="6"></rect></g>
<g transform="translate(480,696) scale(4.12)"><rect width="6" height="6"></rect></g>
<g transform="translate(504,696) scale(4.12)"><rect width="6" height="6"></rect></g>
<g transform="translate(552,696) scale(4.12)"><rect width="6" height="6"></rect></g>
<g transform="translate(600,696) scale(4.12)"><rect width="6" height="6"></rect></g>
<g transform="translate(672,696) scale(4.12)"><rect width="6" height="6"></rect></g>
<g transform="translate(696,696) scale(4.12)"><rect width="6" height="6"></rect></g>
<g transform="translate(720,696) scale(4.12)"><rect width="6" height="6"></rect></g>
<g transform="translate(744,696) scale(4.12)"><rect width="6" height="6"></rect></g>
<g transform="translate(816,696) scale(4.12)"><rect width="6" height="6"></rect></g>
<g transform="translate(888,696) scale(4.12)"><rect width="6" height="6"></rect></g>
<g transform="translate(48,720) scale(4.12)"><rect width="6" height="6"></rect></g>
<g transform="translate(120,720) scale(4.12)"><rect width="6" height="6"></rect></g>
<g transform="translate(192,720) scale(4.12)"><rect width="6" height="6"></rect></g>
<g transform="translate(312,720) scale(4.12)"><rect width="6" height="6"></rect></g>
<g transform="translate(336,720) scale(4.12)"><rect width="6" height="6"></rect></g>
<g transform="translate(456,720) scale(4.12)"><rect width="6" height="6"></rect></g>
<g transform="translate(600,720) scale(4.12)"><rect width="6" height="6"></rect></g>
<g transform="translate(648,720) scale(4.12)"><rect width="6" height="6"></rect></g>
<g transform="translate(672,720) scale(4.12)"><rect width="6" height="6"></rect></g>
<g transform="translate(696,720) scale(4.12)"><rect width="6" height="6"></rect></g>
<g transform="translate(720,720) scale(4.12)"><rect width="6" height="6"></rect></g>
<g transform="translate(744,720) scale(4.12)"><rect width="6" height="6"></rect></g>
<g transform="translate(768,720) scale(4.12)"><rect width="6" height="6"></rect></g>
<g transform="translate(792,720) scale(4.12)"><rect width="6" height="6"></rect></g>
<g transform="translate(816,720) scale(4.12)"><rect width="6" height="6"></rect></g>
<g transform="translate(912,720) scale(4.12)"><rect width="6" height="6"></rect></g>
<g transform="translate(240,744) scale(4.12)"><rect width="6" height="6"></rect></g>
<g transform="translate(264,744) scale(4.12)"><rect width="6" height="6"></rect></g>
<g transform="translate(288,744) scale(4.12)"><rect width="6" height="6"></rect></g>
<g transform="translate(312,744) scale(4.12)"><rect width="6" height="6"></rect></g>
<g transform="translate(360,744) scale(4.12)"><rect width="6" height="6"></rect></g>
<g transform="translate(432,744) scale(4.12)"><rect width="6" height="6"></rect></g>
<g transform="translate(456,744) scale(4.12)"><rect width="6" height="6"></rect></g>
<g transform="translate(480,744) scale(4.12)"><rect width="6" height="6"></rect></g>
<g transform="translate(504,744) scale(4.12)"><rect width="6" height="6"></rect></g>
<g transform="translate(528,744) scale(4.12)"><rect width="6" height="6"></rect></g>
<g transform="translate(600,744) scale(4.12)"><rect width="6" height="6"></rect></g>
<g transform="translate(648,744) scale(4.12)"><rect width="6" height="6"></rect></g>
<g transform="translate(672,744) scale(4.12)"><rect width="6" height="6"></rect></g>
<g transform="translate(696,744) scale(4.12)"><rect width="6" height="6"></rect></g>
<g transform="translate(720,744) scale(4.12)"><rect width="6" height="6"></rect></g>
<g transform="translate(816,744) scale(4.12)"><rect width="6" height="6"></rect></g>
<g transform="translate(888,744) scale(4.12)"><rect width="6" height="6"></rect></g>
<g transform="translate(264,768) scale(4.12)"><rect width="6" height="6"></rect></g>
<g transform="translate(312,768) scale(4.12)"><rect width="6" height="6"></rect></g>
<g transform="translate(408,768) scale(4.12)"><rect width="6" height="6"></rect></g>
<g transform="translate(504,768) scale(4.12)"><rect width="6" height="6"></rect></g>
<g transform="translate(528,768) scale(4.12)"><rect width="6" height="6"></rect></g>
<g transform="translate(576,768) scale(4.12)"><rect width="6" height="6"></rect></g>
<g transform="translate(648,768) scale(4.12)"><rect width="6" height="6"></rect></g>
<g transform="translate(672,768) scale(4.12)"><rect width="6" height="6"></rect></g>
<g transform="translate(720,768) scale(4.12)"><rect width="6" height="6"></rect></g>
<g transform="translate(768,768) scale(4.12)"><rect width="6" height="6"></rect></g>
<g transform="translate(816,768) scale(4.12)"><rect width="6" height="6"></rect></g>
<g transform="translate(840,768) scale(4.12)"><rect width="6" height="6"></rect></g>
<g transform="translate(888,768) scale(4.12)"><rect width="6" height="6"></rect></g>
<g transform="translate(912,768) scale(4.12)"><rect width="6" height="6"></rect></g>
<g transform="translate(264,792) scale(4.12)"><rect width="6" height="6"></rect></g>
<g transform="translate(408,792) scale(4.12)"><rect width="6" height="6"></rect></g>
<g transform="translate(432,792) scale(4.12)"><rect width="6" height="6"></rect></g>
<g transform="translate(480,792) scale(4.12)"><rect width="6" height="6"></rect></g>
<g transform="translate(528,792) scale(4.12)"><rect width="6" height="6"></rect></g>
<g transform="translate(576,792) scale(4.12)"><rect width="6" height="6"></rect></g>
<g transform="translate(720,792) scale(4.12)"><rect width="6" height="6"></rect></g>
<g transform="translate(816,792) scale(4.12)"><rect width="6" height="6"></rect></g>
<g transform="translate(888,792) scale(4.12)"><rect width="6" height="6"></rect></g>
<g transform="translate(240,816) scale(4.12)"><rect width="6" height="6"></rect></g>
<g transform="translate(312,816) scale(4.12)"><rect width="6" height="6"></rect></g>
<g transform="translate(384,816) scale(4.12)"><rect width="6" height="6"></rect></g>
<g transform="translate(432,816) scale(4.12)"><rect width="6" height="6"></rect></g>
<g transform="translate(456,816) scale(4.12)"><rect width="6" height="6"></rect></g>
<g transform="translate(504,816) scale(4.12)"><rect width="6" height="6"></rect></g>
<g transform="translate(528,816) scale(4.12)"><rect width="6" height="6"></rect></g>
<g transform="translate(552,816) scale(4.12)"><rect width="6" height="6"></rect></g>
<g transform="translate(576,816) scale(4.12)"><rect width="6" height="6"></rect></g>
<g transform="translate(600,816) scale(4.12)"><rect width="6" height="6"></rect></g>
<g transform="translate(624,816) scale(4.12)"><rect width="6" height="6"></rect></g>
<g transform="translate(648,816) scale(4.12)"><rect width="6" height="6"></rect></g>
<g transform="translate(672,816) scale(4.12)"><rect width="6" height="6"></rect></g>
<g transform="translate(696,816) scale(4.12)"><rect width="6" height="6"></rect></g>
<g transform="translate(720,816) scale(4.12)"><rect width="6" height="6"></rect></g>
<g transform="translate(744,816) scale(4.12)"><rect width="6" height="6"></rect></g>
<g transform="translate(768,816) scale(4.12)"><rect width="6" height="6"></rect></g>
<g transform="translate(792,816) scale(4.12)"><rect width="6" height="6"></rect></g>
<g transform="translate(816,816) scale(4.12)"><rect width="6" height="6"></rect></g>
<g transform="translate(864,816) scale(4.12)"><rect width="6" height="6"></rect></g>
<g transform="translate(888,816) scale(4.12)"><rect width="6" height="6"></rect></g>
<g transform="translate(912,816) scale(4.12)"><rect width="6" height="6"></rect></g>
<g transform="translate(240,840) scale(4.12)"><rect width="6" height="6"></rect></g>
<g transform="translate(312,840) scale(4.12)"><rect width="6" height="6"></rect></g>
<g transform="translate(360,840) scale(4.12)"><rect width="6" height="6"></rect></g>
<g transform="translate(408,840) scale(4.12)"><rect width="6" height="6"></rect></g>
<g transform="translate(432,840) scale(4.12)"><rect width="6" height="6"></rect></g>
<g transform="translate(456,840) scale(4.12)"><rect width="6" height="6"></rect></g>
<g transform="translate(480,840) scale(4.12)"><rect width="6" height="6"></rect></g>
<g transform="translate(528,840) scale(4.12)"><rect width="6" height="6"></rect></g>
<g transform="translate(576,840) scale(4.12)"><rect width="6" height="6"></rect></g>
<g transform="translate(624,840) scale(4.12)"><rect width="6" height="6"></rect></g>
<g transform="translate(696,840) scale(4.12)"><rect width="6" height="6"></rect></g>
<g transform="translate(768,840) scale(4.12)"><rect width="6" height="6"></rect></g>
<g transform="translate(792,840) scale(4.12)"><rect width="6" height="6"></rect></g>
<g transform="translate(816,840) scale(4.12)"><rect width="6" height="6"></rect></g>
<g transform="translate(840,840) scale(4.12)"><rect width="6" height="6"></rect></g>
<g transform="translate(864,840) scale(4.12)"><rect width="6" height="6"></rect></g>
<g transform="translate(240,864) scale(4.12)"><rect width="6" height="6"></rect></g>
<g transform="translate(288,864) scale(4.12)"><rect width="6" height="6"></rect></g>
<g transform="translate(336,864) scale(4.12)"><rect width="6" height="6"></rect></g>
<g transform="translate(384,864) scale(4.12)"><rect width="6" height="6"></rect></g>
<g transform="translate(480,864) scale(4.12)"><rect width="6" height="6"></rect></g>
<g transform="translate(576,864) scale(4.12)"><rect width="6" height="6"></rect></g>
<g transform="translate(624,864) scale(4.12)"><rect width="6" height="6"></rect></g>
<g transform="translate(648,864) scale(4.12)"><rect width="6" height="6"></rect></g>
<g transform="translate(672,864) scale(4.12)"><rect width="6" height="6"></rect></g>
<g transform="translate(744,864) scale(4.12)"><rect width="6" height="6"></rect></g>
<g transform="translate(792,864) scale(4.12)"><rect width="6" height="6"></rect></g>
<g transform="translate(912,864) scale(4.12)"><rect width="6" height="6"></rect></g>
<g transform="translate(336,888) scale(4.12)"><rect width="6" height="6"></rect></g>
<g transform="translate(360,888) scale(4.12)"><rect width="6" height="6"></rect></g>
<g transform="translate(384,888) scale(4.12)"><rect width="6" height="6"></rect></g>
<g transform="translate(408,888) scale(4.12)"><rect width="6" height="6"></rect></g>
<g transform="translate(432,888) scale(4.12)"><rect width="6" height="6"></rect></g>
<g transform="translate(480,888) scale(4.12)"><rect width="6" height="6"></rect></g>
<g transform="translate(504,888) scale(4.12)"><rect width="6" height="6"></rect></g>
<g transform="translate(552,888) scale(4.12)"><rect width="6" height="6"></rect></g>
<g transform="translate(624,888) scale(4.12)"><rect width="6" height="6"></rect></g>
<g transform="translate(720,888) scale(4.12)"><rect width="6" height="6"></rect></g>
<g transform="translate(744,888) scale(4.12)"><rect width="6" height="6"></rect></g>
<g transform="translate(768,888) scale(4.12)"><rect width="6" height="6"></rect></g>
<g transform="translate(792,888) scale(4.12)"><rect width="6" height="6"></rect></g>
<g transform="translate(816,888) scale(4.12)"><rect width="6" height="6"></rect></g>
<g transform="translate(912,888) scale(4.12)"><rect width="6" height="6"></rect></g>
<g transform="translate(264,912) scale(4.12)"><rect width="6" height="6"></rect></g>
<g transform="translate(288,912) scale(4.12)"><rect width="6" height="6"></rect></g>
<g transform="translate(312,912) scale(4.12)"><rect width="6" height="6"></rect></g>
<g transform="translate(360,912) scale(4.12)"><rect width="6" height="6"></rect></g>
<g transform="translate(408,912) scale(4.12)"><rect width="6" height="6"></rect></g>
<g transform="translate(456,912) scale(4.12)"><rect width="6" height="6"></rect></g>
<g transform="translate(552,912) scale(4.12)"><rect width="6" height="6"></rect></g>
<g transform="translate(576,912) scale(4.12)"><rect width="6" height="6"></rect></g>
<g transform="translate(648,912) scale(4.12)"><rect width="6" height="6"></rect></g>
<g transform="translate(768,912) scale(4.12)"><rect width="6" height="6"></rect></g>
<g transform="translate(792,912) scale(4.12)"><rect width="6" height="6"></rect></g>
<g transform="translate(816,912) scale(4.12)"><rect width="6" height="6"></rect></g>
<g transform="translate(840,912) scale(4.12)"><rect width="6" height="6"></rect></g>
<g transform="translate(864,912) scale(4.12)"><rect width="6" height="6"></rect></g>
<g transform="translate(888,912) scale(4.12)"><rect width="6" height="6"></rect></g>
<g transform="translate(912,912) scale(4.12)"><rect width="6" height="6"></rect></g>
</g><g><g transform="translate(48,48)" fill="#ab6137"><g transform="scale(12)"><path d="M0,0v14h14V0H0z M12,12H2V2h10V12z"></path></g></g>
<g transform="translate(768,48)" fill="#ab6137"><g transform="scale(12)"><path d="M0,0v14h14V0H0z M12,12H2V2h10V12z"></path></g></g>
<g transform="translate(48,768)" fill="#ab6137"><g transform="scale(12)"><path d="M0,0v14h14V0H0z M12,12H2V2h10V12z"></path></g></g>
<g transform="translate(96,96)" fill="#ab6137"><g transform="scale(12)"><rect width="6" height="6"></rect></g></g>
<g transform="translate(816,96)" fill="#ab6137"><g transform="scale(12)"><rect width="6" height="6"></rect></g></g>
<g transform="translate(96,816)" fill="#ab6137"><g transform="scale(12)"><rect width="6" height="6"></rect></g></g></g>
</svg>
